<?xml version="1.0" encoding="UTF-8"?>
<!DOCTYPE svg PUBLIC "-//W3C//DTD SVG 1.1//EN" "http://www.w3.org/Graphics/SVG/1.1/DTD/svg11.dtd">
<svg xmlns="http://www.w3.org/2000/svg" xml:space="preserve" width="14.2874mm" height="17.4624mm" version="1.1" style="shape-rendering:geometricPrecision; text-rendering:geometricPrecision; image-rendering:optimizeQuality; fill-rule:evenodd; clip-rule:evenodd"
viewBox="0 0 1429 1746"
 xmlns:xlink="http://www.w3.org/1999/xlink">
 <defs>
  <style type="text/css">
   <![CDATA[
    .fil0 {fill:white;fill-rule:nonzero}
   ]]>
  </style>
 </defs>
 <g id="Слой_x0020_1">
  <metadata id="CorelCorpID_0Corel-Layer"/>
  <g id="_1060735440">
   <path class="fil0" d="M1153 1644c-19,0 -34,-15 -34,-34l0 -1093c0,-4 -1,-8 -4,-10l-206 -206c-2,-3 -6,-4 -10,-4l-760 0c-19,0 -34,-15 -34,-34 0,-19 15,-35 34,-35l760 0c22,0 43,9 59,25l205 205c16,16 25,37 25,59l0 1093c0,19 -16,34 -35,34z"/>
   <path class="fil0" d="M1271 1526c-19,0 -34,-15 -34,-34l0 -1093c0,-4 -2,-7 -4,-10l-206 -206c-3,-2 -6,-4 -10,-4l-760 0c-19,0 -34,-15 -34,-34 0,-19 15,-35 34,-35l760 0c22,0 43,9 59,25l205 205c16,16 25,37 25,59l0 1093c0,19 -16,34 -35,34z"/>
   <path class="fil0" d="M1389 1409c-19,0 -34,-16 -34,-35l0 -1093c0,-4 -2,-7 -5,-10l-205 -205c-3,-3 -6,-5 -10,-5l-760 0c-19,0 -35,-15 -35,-34 0,-19 16,-34 35,-34l760 0c22,0 43,9 58,24l206 206c16,15 24,36 24,58l0 1093c0,19 -15,35 -34,35z"/>
   <path class="fil0" d="M1050 634l-200 0c-37,0 -68,-31 -68,-68l0 -200c0,-11 9,-20 20,-20 10,0 19,9 19,20l0 200c0,16 13,29 29,29l200 0c11,0 20,9 20,19 0,11 -9,20 -20,20z"/>
   <path class="fil0" d="M871 567l172 0 -195 -195 0 172c0,12 10,23 23,23z"/>
   <path class="fil0" d="M936 729l-809 0c-12,0 -21,-10 -21,-21 0,-11 9,-21 21,-21l809 0c12,0 21,10 21,21 0,11 -9,21 -21,21zm0 155l-809 0c-12,0 -21,-9 -21,-21 0,-11 9,-20 21,-20l809 0c12,0 21,9 21,20 0,12 -9,21 -21,21zm0 155l-809 0c-12,0 -21,-9 -21,-21 0,-11 9,-20 21,-20l809 0c12,0 21,9 21,20 0,12 -9,21 -21,21zm0 155l-809 0c-12,0 -21,-9 -21,-20 0,-12 9,-21 21,-21l809 0c12,0 21,9 21,21 0,11 -9,20 -21,20zm0 155l-809 0c-12,0 -21,-9 -21,-20 0,-12 9,-21 21,-21l809 0c12,0 21,9 21,21 0,11 -9,20 -21,20zm0 155l-809 0c-12,0 -21,-9 -21,-20 0,-12 9,-21 21,-21l809 0c12,0 21,9 21,21 0,11 -9,20 -21,20zm-809 -972l575 0c12,0 21,10 21,21 0,11 -9,21 -21,21l-575 0c-12,0 -21,-10 -21,-21 0,-11 9,-21 21,-21zm744 90c-43,0 -78,-35 -78,-78l0 -191 -744 0c-27,0 -49,22 -49,49l0 1298c0,27 22,49 49,49l965 0c27,0 49,-22 49,-49l0 -1078 -192 0z"/>
  </g>
  <path class="fil0" d="M-5745 -5062l-907 0c-11,0 -20,-9 -20,-20l0 -296c0,-11 9,-19 20,-19l907 0c10,0 19,8 19,19l0 296c0,11 -9,20 -19,20zm-10 409l-97 0c-16,0 -29,-13 -29,-29l0 -97c0,-16 13,-28 29,-28l97 0c16,0 29,12 29,28l0 97c0,16 -13,29 -29,29zm0 249l-97 0c-16,0 -29,-13 -29,-28l0 -98c0,-16 13,-28 29,-28l97 0c16,0 29,12 29,28l0 98c0,15 -13,28 -29,28zm0 498l-97 0c-16,0 -29,-12 -29,-28l0 -346c0,-16 13,-29 29,-29l97 0c16,0 29,13 29,29l0 346c0,16 -13,28 -29,28zm-309 -747l-98 0c-15,0 -28,-13 -28,-29l0 -97c0,-16 13,-28 28,-28l98 0c15,0 28,12 28,28l0 97c0,16 -13,29 -28,29zm0 249l-98 0c-15,0 -28,-13 -28,-28l0 -98c0,-16 13,-28 28,-28l98 0c15,0 28,12 28,28l0 98c0,15 -13,28 -28,28zm0 249l-98 0c-15,0 -28,-12 -28,-28l0 -97c0,-16 13,-29 28,-29l98 0c15,0 28,13 28,29l0 97c0,16 -13,28 -28,28zm0 249l-98 0c-15,0 -28,-12 -28,-28l0 -97c0,-16 13,-29 28,-29l98 0c15,0 28,13 28,29l0 97c0,16 -13,28 -28,28zm-241 -747l-97 0c-16,0 -29,-13 -29,-29l0 -97c0,-16 13,-28 29,-28l97 0c16,0 29,12 29,28l0 97c0,16 -13,29 -29,29zm0 249l-97 0c-16,0 -29,-13 -29,-28l0 -98c0,-16 13,-28 29,-28l97 0c16,0 29,12 29,28l0 98c0,15 -13,28 -29,28zm0 249l-97 0c-16,0 -29,-12 -29,-28l0 -97c0,-16 13,-29 29,-29l97 0c16,0 29,13 29,29l0 97c0,16 -13,28 -29,28zm0 249l-97 0c-16,0 -29,-12 -29,-28l0 -97c0,-16 13,-29 29,-29l97 0c16,0 29,13 29,29l0 97c0,16 -13,28 -29,28zm-241 -747l-97 0c-16,0 -29,-13 -29,-29l0 -97c0,-16 13,-28 29,-28l97 0c16,0 29,12 29,28l0 97c0,16 -13,29 -29,29zm0 249l-97 0c-16,0 -29,-13 -29,-28l0 -98c0,-16 13,-28 29,-28l97 0c16,0 29,12 29,28l0 98c0,15 -13,28 -29,28zm0 249l-97 0c-16,0 -29,-12 -29,-28l0 -97c0,-16 13,-29 29,-29l97 0c16,0 29,13 29,29l0 97c0,16 -13,28 -29,28zm0 249l-97 0c-16,0 -29,-12 -29,-28l0 -97c0,-16 13,-29 29,-29l97 0c16,0 29,13 29,29l0 97c0,16 -13,28 -29,28zm-289 -1558l0 1625c0,52 42,94 94,94l1085 0c51,0 93,-42 93,-94l0 -1625c0,-52 -42,-94 -93,-94l-1085 0c-52,0 -94,42 -94,94z"/>
  <g id="_1060718288">
   <path class="fil0" d="M212 -4837c0,6 -5,11 -11,11l-275 0c-6,0 -11,-5 -11,-11l0 -620c0,-6 5,-11 11,-11l47 0 80 80c6,6 15,6 21,0l80 -80 47 0c6,0 11,5 11,11l0 620zm-149 515c-57,0 -103,-47 -103,-104 0,-58 46,-104 103,-104 58,0 104,46 104,104 0,57 -46,104 -104,104zm188 -1261l-376 0c-23,0 -42,19 -42,42l0 1280c0,24 19,42 42,42l376 0c23,0 42,-18 42,-42l0 -1280c0,-23 -19,-42 -42,-42z"/>
   <path class="fil0" d="M167 -5279l-207 0c-12,0 -21,-9 -21,-21 0,-11 9,-20 21,-20l207 0c12,0 21,9 21,20 0,12 -9,21 -21,21z"/>
   <path class="fil0" d="M167 -5188l-207 0c-12,0 -21,-9 -21,-20 0,-12 9,-21 21,-21l207 0c12,0 21,9 21,21 0,11 -9,20 -21,20z"/>
   <path class="fil0" d="M167 -5096l-207 0c-12,0 -21,-9 -21,-21 0,-11 9,-20 21,-20l207 0c12,0 21,9 21,20 0,12 -9,21 -21,21z"/>
   <path class="fil0" d="M167 -5004l-207 0c-12,0 -21,-10 -21,-21 0,-11 9,-21 21,-21l207 0c12,0 21,10 21,21 0,11 -9,21 -21,21z"/>
   <path class="fil0" d="M167 -4913l-207 0c-12,0 -21,-9 -21,-20 0,-12 9,-21 21,-21l207 0c12,0 21,9 21,21 0,11 -9,20 -21,20z"/>
   <path class="fil0" d="M748 -4837c0,6 -5,11 -11,11l-275 0c-6,0 -11,-5 -11,-11l0 -620c0,-6 5,-11 11,-11l47 0 80 80c6,6 15,6 21,0l80 -80 47 0c6,0 11,5 11,11l0 620zm-149 515c-57,0 -103,-47 -103,-104 0,-58 46,-104 103,-104 58,0 104,46 104,104 0,57 -46,104 -104,104zm188 -1261l-376 0c-23,0 -41,19 -41,42l0 1280c0,24 18,42 41,42l376 0c23,0 42,-18 42,-42l0 -1280c0,-23 -19,-42 -42,-42z"/>
   <path class="fil0" d="M703 -5279l-207 0c-12,0 -21,-9 -21,-21 0,-11 9,-20 21,-20l207 0c12,0 21,9 21,20 0,12 -9,21 -21,21z"/>
   <path class="fil0" d="M703 -5188l-207 0c-12,0 -21,-9 -21,-20 0,-12 9,-21 21,-21l207 0c12,0 21,9 21,21 0,11 -9,20 -21,20z"/>
   <path class="fil0" d="M703 -5096l-207 0c-12,0 -21,-9 -21,-21 0,-11 9,-20 21,-20l207 0c12,0 21,9 21,20 0,12 -9,21 -21,21z"/>
   <path class="fil0" d="M703 -5004l-207 0c-12,0 -21,-10 -21,-21 0,-11 9,-21 21,-21l207 0c12,0 21,10 21,21 0,11 -9,21 -21,21z"/>
   <path class="fil0" d="M703 -4913l-207 0c-12,0 -21,-9 -21,-20 0,-12 9,-21 21,-21l207 0c12,0 21,9 21,21 0,11 -9,20 -21,20z"/>
   <path class="fil0" d="M1351 -4360c-57,12 -112,-24 -123,-80 -12,-56 24,-111 80,-123 56,-12 111,24 123,80 12,56 -24,111 -80,123zm-238 -464c-6,1 -12,-2 -13,-8l-128 -608c-1,-6 3,-11 8,-13l46 -9 95 62c7,4 16,2 21,-5l62 -95 45 -9c6,-1 12,2 13,8l128 608c1,6 -3,11 -8,13l-269 56zm475 478l-263 -1254c-5,-22 -27,-37 -50,-32l-368 77c-22,5 -37,27 -32,50l263 1253c5,23 27,37 50,32l368 -77c22,-5 37,-27 32,-49z"/>
   <path class="fil0" d="M1048 -5274c-10,0 -18,-7 -20,-17 -3,-11 5,-22 16,-24l203 -43c11,-2 22,5 24,16 3,11 -4,22 -16,25l-203 42c-1,1 -3,1 -4,1z"/>
   <path class="fil0" d="M1067 -5185c-10,0 -18,-6 -20,-16 -3,-11 4,-22 16,-24l203 -43c11,-2 22,5 24,16 3,11 -5,22 -16,24l-203 43c-1,0 -3,0 -4,0z"/>
   <path class="fil0" d="M1086 -5095c-10,0 -18,-7 -21,-16 -2,-11 5,-22 16,-25l204 -42c11,-3 22,4 24,15 2,12 -5,23 -16,25l-203 43c-2,0 -3,0 -4,0z"/>
   <path class="fil0" d="M1104 -5005c-9,0 -18,-7 -20,-17 -2,-11 5,-22 16,-24l203 -43c12,-2 23,5 25,16 2,11 -5,22 -16,25l-203 42c-2,1 -3,1 -5,1z"/>
   <path class="fil0" d="M1123 -4916c-9,0 -18,-6 -20,-16 -2,-11 5,-22 16,-24l203 -43c11,-2 22,5 25,16 2,11 -5,22 -16,24l-203 43c-2,0 -3,0 -5,0z"/>
  </g>
  <g id="_1060737488">
   <path class="fil0" d="M3413 -4593l-2 -980 1501 -2 2 980 -1501 2zm1573 -994c0,-38 -31,-70 -68,-70l-1514 3c-38,0 -68,31 -68,70l2 1057c0,39 30,70 68,70l1514 -3c37,0 68,-31 68,-70l-2 -1057z"/>
   <polygon class="fil0" points="5008,-4430 4162,-4429 3317,-4428 3105,-3976 3137,-3874 4163,-3875 5188,-3876 5221,-3978 "/>
  </g>
  <g id="_1060712880">
   <path class="fil0" d="M8168 -4645l-1006 0 0 -49 924 -123c50,-8 84,-46 85,-96l0 -306c0,-50 -41,-91 -92,-91l-917 0 0 -70c0,-63 -50,-112 -113,-113l-178 0c-40,0 -72,32 -72,72 0,39 32,71 72,71l148 0 0 736c0,62 50,112 112,112l1037 0c40,0 72,-32 72,-71 0,-40 -32,-72 -72,-72zm-604 -206l0 0 -175 24 0 -381 175 0 0 357zm82 -357l0 0 176 0 0 323 -176 24 0 -347zm423 291l0 0 -165 21 0 -312 165 0 0 291zm-762 -291l0 0 0 391 -145 20 0 -411 145 0z"/>
   <path class="fil0" d="M7344 -4488c-78,0 -141,63 -141,141 0,79 63,142 141,142 78,0 141,-63 141,-142 0,-78 -63,-141 -141,-141z"/>
   <path class="fil0" d="M8025 -4488c-78,0 -141,63 -141,141 0,79 63,142 141,142 78,0 142,-63 142,-142 0,-78 -64,-141 -142,-141z"/>
  </g>
 </g>
</svg>
