<?xml version="1.0" encoding="UTF-8"?>
<!DOCTYPE svg PUBLIC "-//W3C//DTD SVG 1.1//EN" "http://www.w3.org/Graphics/SVG/1.1/DTD/svg11.dtd">

<svg xmlns="http://www.w3.org/2000/svg" xml:space="preserve" width="12.6998mm" height="18.2562mm" version="1.1" style="shape-rendering:geometricPrecision; text-rendering:geometricPrecision; image-rendering:optimizeQuality; fill-rule:evenodd; clip-rule:evenodd"
viewBox="0 0 1270 1826"
 xmlns:xlink="http://www.w3.org/1999/xlink">
 <defs>
  <style type="text/css">
   <![CDATA[
    .fil0 {fill:white;fill-rule:nonzero}
   ]]>
  </style>
 </defs>
 <g id="Слой_x0020_1">
  <metadata id="CorelCorpID_0Corel-Layer"/>
  <path class="fil0" d="M1090 508l-907 0c-11,0 -20,-8 -20,-19l0 -296c0,-11 9,-20 20,-20l907 0c10,0 19,9 19,20l0 296c0,11 -9,19 -19,19zm-10 410l-97 0c-16,0 -29,-13 -29,-29l0 -97c0,-16 13,-29 29,-29l97 0c16,0 29,13 29,29l0 97c0,16 -13,29 -29,29zm0 249l-97 0c-16,0 -29,-13 -29,-29l0 -97c0,-16 13,-29 29,-29l97 0c16,0 29,13 29,29l0 97c0,16 -13,29 -29,29zm0 498l-97 0c-16,0 -29,-13 -29,-29l0 -346c0,-16 13,-29 29,-29l97 0c16,0 29,13 29,29l0 346c0,16 -13,29 -29,29zm-309 -747l-98 0c-16,0 -28,-13 -28,-29l0 -97c0,-16 12,-29 28,-29l98 0c15,0 28,13 28,29l0 97c0,16 -13,29 -28,29zm0 249l-98 0c-16,0 -28,-13 -28,-29l0 -97c0,-16 12,-29 28,-29l98 0c15,0 28,13 28,29l0 97c0,16 -13,29 -28,29zm0 249l-98 0c-16,0 -28,-13 -28,-29l0 -97c0,-16 12,-29 28,-29l98 0c15,0 28,13 28,29l0 97c0,16 -13,29 -28,29zm0 249l-98 0c-16,0 -28,-13 -28,-29l0 -97c0,-16 12,-29 28,-29l98 0c15,0 28,13 28,29l0 97c0,16 -13,29 -28,29zm-241 -747l-97 0c-16,0 -29,-13 -29,-29l0 -97c0,-16 13,-29 29,-29l97 0c16,0 29,13 29,29l0 97c0,16 -13,29 -29,29zm0 249l-97 0c-16,0 -29,-13 -29,-29l0 -97c0,-16 13,-29 29,-29l97 0c16,0 29,13 29,29l0 97c0,16 -13,29 -29,29zm0 249l-97 0c-16,0 -29,-13 -29,-29l0 -97c0,-16 13,-29 29,-29l97 0c16,0 29,13 29,29l0 97c0,16 -13,29 -29,29zm0 249l-97 0c-16,0 -29,-13 -29,-29l0 -97c0,-16 13,-29 29,-29l97 0c16,0 29,13 29,29l0 97c0,16 -13,29 -29,29zm-241 -747l-97 0c-16,0 -29,-13 -29,-29l0 -97c0,-16 13,-29 29,-29l97 0c16,0 29,13 29,29l0 97c0,16 -13,29 -29,29zm0 249l-97 0c-16,0 -29,-13 -29,-29l0 -97c0,-16 13,-29 29,-29l97 0c16,0 29,13 29,29l0 97c0,16 -13,29 -29,29zm0 249l-97 0c-16,0 -29,-13 -29,-29l0 -97c0,-16 13,-29 29,-29l97 0c16,0 29,13 29,29l0 97c0,16 -13,29 -29,29zm0 249l-97 0c-16,0 -29,-13 -29,-29l0 -97c0,-16 13,-29 29,-29l97 0c16,0 29,13 29,29l0 97c0,16 -13,29 -29,29zm-289 -1558l0 1625c0,52 42,94 94,94l1085 0c51,0 93,-42 93,-94l0 -1625c0,-52 -42,-94 -93,-94l-1085 0c-52,0 -94,42 -94,94z"/>
 </g>
</svg>
