<?xml version="1.0" encoding="UTF-8"?>
<!DOCTYPE svg PUBLIC "-//W3C//DTD SVG 1.1//EN" "http://www.w3.org/Graphics/SVG/1.1/DTD/svg11.dtd">
<!-- Creator: CorelDRAW X8 -->
<svg xmlns="http://www.w3.org/2000/svg" xml:space="preserve" width="21.1666mm" height="17.727mm" version="1.1" style="shape-rendering:geometricPrecision; text-rendering:geometricPrecision; image-rendering:optimizeQuality; fill-rule:evenodd; clip-rule:evenodd"
viewBox="0 0 2117 1773"
 xmlns:xlink="http://www.w3.org/1999/xlink">
 <defs>
  <style type="text/css">
   <![CDATA[
    .fil0 {fill:white;fill-rule:nonzero}
   ]]>
  </style>
 </defs>
 <g id="Слой_x0020_1">
  <metadata id="CorelCorpID_0Corel-Layer"/>
  <g id="_1060710064">
   <path class="fil0" d="M308 1054l-1 -980 1501 -3 1 980 -1501 3zm1573 -994c0,-39 -30,-70 -68,-70l-1514 2c-37,0 -68,32 -68,70l2 1058c0,38 31,69 68,69l1514 -2c38,0 68,-31 68,-70l-2 -1057z"/>
   <polygon class="fil0" points="1903,1217 1058,1217 212,1218 0,1670 33,1773 1058,1772 2084,1771 2116,1668 "/>
  </g>
 </g>
</svg>
