<?xml version="1.0" encoding="UTF-8"?>
<!DOCTYPE svg PUBLIC "-//W3C//DTD SVG 1.1//EN" "http://www.w3.org/Graphics/SVG/1.1/DTD/svg11.dtd">
<!-- Creator: CorelDRAW X8 -->
<svg xmlns="http://www.w3.org/2000/svg" xml:space="preserve" width="17.4624mm" height="14.0228mm" version="1.1" style="shape-rendering:geometricPrecision; text-rendering:geometricPrecision; image-rendering:optimizeQuality; fill-rule:evenodd; clip-rule:evenodd"
viewBox="0 0 1746 1402"
 xmlns:xlink="http://www.w3.org/1999/xlink">
 <defs>
  <style type="text/css">
   <![CDATA[
    .fil0 {fill:white;fill-rule:nonzero}
   ]]>
  </style>
 </defs>
 <g id="Слой_x0020_1">
  <metadata id="CorelCorpID_0Corel-Layer"/>
  <g id="_1060710864">
   <path class="fil0" d="M370 784c0,6 -4,11 -11,11l-274 0c-6,0 -11,-5 -11,-11l0 -620c0,-6 5,-11 11,-11l46 0 81 80c5,6 15,6 21,0l80 -80 46 0c7,0 11,5 11,11l0 620zm-148 514c-57,0 -104,-46 -104,-103 0,-58 47,-104 104,-104 57,0 104,46 104,104 0,57 -47,103 -104,103zm188 -1260l-376 0c-23,0 -42,19 -42,42l0 1280c0,24 19,42 42,42l376 0c23,0 42,-18 42,-42l0 -1280c0,-23 -19,-42 -42,-42z"/>
   <path class="fil0" d="M326 342l-208 0c-11,0 -20,-10 -20,-21 0,-11 9,-21 20,-21l208 0c11,0 21,10 21,21 0,11 -10,21 -21,21z"/>
   <path class="fil0" d="M326 433l-208 0c-11,0 -20,-9 -20,-20 0,-12 9,-21 20,-21l208 0c11,0 21,9 21,21 0,11 -10,20 -21,20z"/>
   <path class="fil0" d="M326 525l-208 0c-11,0 -20,-9 -20,-21 0,-11 9,-20 20,-20l208 0c11,0 21,9 21,20 0,12 -10,21 -21,21z"/>
   <path class="fil0" d="M326 617l-208 0c-11,0 -20,-10 -20,-21 0,-11 9,-21 20,-21l208 0c11,0 21,10 21,21 0,11 -10,21 -21,21z"/>
   <path class="fil0" d="M326 708l-208 0c-11,0 -20,-9 -20,-20 0,-12 9,-21 20,-21l208 0c11,0 21,9 21,21 0,11 -10,20 -21,20z"/>
   <path class="fil0" d="M906 784c0,6 -4,11 -10,11l-275 0c-6,0 -11,-5 -11,-11l0 -620c0,-6 5,-11 11,-11l46 0 81 80c5,6 15,6 21,0l80 -80 47 0c6,0 10,5 10,11l0 620zm-148 514c-57,0 -104,-46 -104,-103 0,-58 47,-104 104,-104 57,0 104,46 104,104 0,57 -47,103 -104,103zm188 -1260l-376 0c-23,0 -42,19 -42,42l0 1280c0,24 19,42 42,42l376 0c23,0 42,-18 42,-42l0 -1280c0,-23 -19,-42 -42,-42z"/>
   <path class="fil0" d="M862 342l-208 0c-11,0 -20,-10 -20,-21 0,-11 9,-21 20,-21l208 0c11,0 21,10 21,21 0,11 -10,21 -21,21z"/>
   <path class="fil0" d="M862 433l-208 0c-11,0 -20,-9 -20,-20 0,-12 9,-21 20,-21l208 0c11,0 21,9 21,21 0,11 -10,20 -21,20z"/>
   <path class="fil0" d="M862 525l-208 0c-11,0 -20,-9 -20,-21 0,-11 9,-20 20,-20l208 0c11,0 21,9 21,20 0,12 -10,21 -21,21z"/>
   <path class="fil0" d="M862 617l-208 0c-11,0 -20,-10 -20,-21 0,-11 9,-21 20,-21l208 0c11,0 21,10 21,21 0,11 -10,21 -21,21z"/>
   <path class="fil0" d="M862 708l-208 0c-11,0 -20,-9 -20,-20 0,-12 9,-21 20,-21l208 0c11,0 21,9 21,21 0,11 -10,20 -21,20z"/>
   <path class="fil0" d="M1509 1261c-56,12 -111,-24 -123,-80 -11,-56 25,-111 81,-123 56,-12 111,24 123,80 11,56 -25,111 -81,123zm-238 -464c-6,1 -11,-3 -13,-9l-127 -607c-1,-6 2,-12 8,-13l46 -9 95 62c7,4 16,2 20,-5l62 -95 46 -9c6,-2 12,2 13,8l128 607c1,6 -3,12 -9,13l-269 57zm476 477l-263 -1253c-5,-22 -27,-37 -50,-32l-368 77c-23,5 -37,27 -32,50l263 1253c5,23 27,37 50,32l368 -77c22,-5 37,-27 32,-50z"/>
   <path class="fil0" d="M1207 347c-10,0 -18,-7 -20,-17 -3,-11 4,-22 15,-24l204 -43c11,-2 22,5 24,16 2,11 -5,22 -16,24l-203 43c-1,0 -3,1 -4,1z"/>
   <path class="fil0" d="M1226 436c-10,0 -19,-6 -21,-16 -2,-11 5,-22 16,-25l204 -42c11,-3 22,5 24,16 2,11 -5,22 -16,24l-203 43c-2,0 -3,0 -4,0z"/>
   <path class="fil0" d="M1244 526c-9,0 -18,-7 -20,-16 -2,-12 5,-22 16,-25l203 -43c11,-2 22,5 25,16 2,12 -5,22 -16,25l-203 43c-2,0 -3,0 -5,0z"/>
   <path class="fil0" d="M1263 616c-9,0 -18,-7 -20,-17 -2,-11 5,-22 16,-24l203 -43c11,-2 22,5 25,16 2,11 -5,22 -16,24l-204 43c-1,0 -2,1 -4,1z"/>
   <path class="fil0" d="M1282 705c-9,0 -18,-6 -20,-16 -2,-11 5,-22 16,-25l203 -42c11,-3 22,5 24,16 3,11 -4,22 -15,24l-204 43c-1,0 -3,0 -4,0z"/>
  </g>
  <g id="_1060748656">
   <path class="fil0" d="M3572 -4765l-2 -980 1501 -2 2 980 -1501 2zm1573 -994c0,-38 -31,-70 -68,-70l-1515 3c-37,0 -67,31 -67,70l1 1057c1,39 31,70 68,70l1515 -3c37,0 67,-31 67,-70l-1 -1057z"/>
   <polygon class="fil0" points="5167,-4602 4321,-4601 3475,-4600 3263,-4148 3296,-4046 4322,-4047 5347,-4048 5380,-4150 "/>
  </g>
 </g>
</svg>
